<svg width="512" height="512" viewBox="0 0 512 512" xmlns="http://www.w3.org/2000/svg">
  <!-- CounterLedger — Light mode -->
  <rect x="0" y="0" width="512" height="512" rx="56" fill="#1a1a1a"/>

  <!-- Row 1 -->
  <path d="M124,88 h26 a10,10 0 0 1 10,10 v52 a10,10 0 0 1 -10,10 h-52 a10,10 0 0 1 -10,-10 v-26 a36,36 0 0 1 36,-36 z" fill="#ffffff"/>
  <rect x="176" y="88" width="72" height="72" rx="10" fill="#ffffff" opacity="0.55"/>
  <rect x="264" y="88" width="72" height="72" rx="10" fill="#ffffff" opacity="0.22"/>
  <path d="M362,88 h26 a36,36 0 0 1 36,36 v26 a10,10 0 0 1 -10,10 h-52 a10,10 0 0 1 -10,-10 v-52 a10,10 0 0 1 10,-10 z" fill="#ffffff" opacity="0.08"/>

  <!-- Row 2 -->
  <rect x="88" y="176" width="72" height="72" rx="10" fill="#ffffff"/>
  <rect x="176" y="176" width="72" height="72" rx="10" fill="#ffffff" opacity="0.16"/>
  <rect x="264" y="176" width="72" height="72" rx="10" fill="#ffffff" opacity="0.07"/>
  <rect x="352" y="176" width="72" height="72" rx="10" fill="#ffffff" opacity="0.02"/>

  <!-- Row 3 -->
  <rect x="88" y="264" width="72" height="72" rx="10" fill="#ffffff"/>
  <rect x="176" y="264" width="72" height="72" rx="10" fill="#ffffff" opacity="0.16"/>
  <rect x="264" y="264" width="72" height="72" rx="10" fill="#ffffff" opacity="0.07"/>
  <rect x="352" y="264" width="72" height="72" rx="10" fill="#ffffff" opacity="0.02"/>

  <!-- Row 4 -->
  <path d="M98,352 h52 a10,10 0 0 1 10,10 v52 a10,10 0 0 1 -10,10 h-26 a36,36 0 0 1 -36,-36 v-26 a10,10 0 0 1 10,-10 z" fill="#ffffff"/>
  <rect x="176" y="352" width="72" height="72" rx="10" fill="#ffffff"/>
  <rect x="264" y="352" width="72" height="72" rx="10" fill="#ffffff"/>
  <path d="M362,352 h52 a10,10 0 0 1 10,10 v26 a36,36 0 0 1 -36,36 h-26 a10,10 0 0 1 -10,-10 v-52 a10,10 0 0 1 10,-10 z" fill="#ffffff" opacity="0.85"/>
</svg>